<?xml version="1.0" encoding="utf-8"?>
<!-- Generator: Adobe Illustrator 24.0.1, SVG Export Plug-In . SVG Version: 6.00 Build 0)  -->
<svg version="1.1" id="Layer_1" xmlns="http://www.w3.org/2000/svg" xmlns:xlink="http://www.w3.org/1999/xlink" x="0px" y="0px"
	 viewBox="0 0 1022.4 884.3" style="enable-background:new 0 0 1022.4 884.3;" xml:space="preserve">
<style type="text/css">
	.st0{fill-rule:evenodd;clip-rule:evenodd;fill:url(#SVGID_1_);}
	.st1{fill:#FFFFFF;}
	.st2{fill:#FFFE2C;}
</style>
<linearGradient id="SVGID_1_" gradientUnits="userSpaceOnUse" x1="510.5129" y1="-164.3109" x2="957.5331" y2="-164.3109" gradientTransform="matrix(1 0 0 -1 0 479.6235)">
	<stop  offset="0" style="stop-color:#00A550"/>
	<stop  offset="0.1689" style="stop-color:#1DAF3B"/>
	<stop  offset="0.4068" style="stop-color:#40BB21"/>
	<stop  offset="0.6315" style="stop-color:#59C30F"/>
	<stop  offset="0.8355" style="stop-color:#69C804"/>
	<stop  offset="1" style="stop-color:#6ECA00"/>
</linearGradient>
<path class="st0" d="M885.5,825.5H135.4c-39.6,0-72-32.4-72-72V534.4c0-39.6,32.4-72,72-72h750.1c39.6,0,72,32.4,72,72v219.1
	C957.5,793.1,925.1,825.5,885.5,825.5z"/>
<g>
	<g>
		<g>
			<path class="st1" d="M210.9,500.9c-11.5,0-24.2,0.6-37.9,1.9c-11.3,1.1-21.5,2.7-30.5,4.7c-3.2,0.8-5.3,3.5-5.3,6.8v282.5H166
				V685.3c0-3.8,3.2-7,7-7h40.5c7.8,0,15.5-0.3,23.3-1c0.2,0,0.4,0,0.6,0c2.2,0,4.2,1,5.6,2.8c4.5,6,9.7,12.9,15.5,20.6
				c6.8,9.1,13.8,18.8,21,29.5c7.2,10.5,14.3,21.5,21.2,32.8c6.9,11.3,13.3,22.6,19.2,33.9h30.9c-5.1-11.3-11.3-23.2-18.6-35.6
				c-7.4-12.4-14.8-24.3-22.5-35.8c-7.6-11.4-15.1-22-22.3-31.5c-4.3-5.8-8.2-10.8-11.5-15.2c-2.9-3.6-1.4-9.1,3-10.7
				c14.8-5.7,27-13.8,36.8-24.4c11.5-12.7,17.3-30.1,17.3-52.1c0-30-10.2-52.5-30.7-67.7C281.7,508.5,251.2,500.9,210.9,500.9
				L210.9,500.9z M173,653.7c-3.8,0-7-3.2-7-7V535.1c0-3.5,2.8-6.6,6.3-6.9c4-0.4,8.7-0.8,13.8-1.3c8.1-0.7,17.4-1.1,28.2-1.1
				c11.3,0,22.3,0.9,32.8,2.8c10.5,1.9,20,5.2,28.2,10.2c8.2,4.9,14.8,11.6,19.9,20.1c5.1,8.5,7.6,19.2,7.6,32.2
				c0,14.1-2.6,25.2-7.6,33.4c-5.1,8.2-12,14.5-20.8,18.8s-19,7.2-30.9,8.5c-11.8,1.3-24.4,1.9-37.6,1.9L173,653.7L173,653.7z"/>
		</g>
	</g>
	<g>
		<path class="st1" d="M388.7,597.4h-2.4c-9.4,0-17,6.4-17,14.4V797h36.3V611.8C405.6,603.9,398,597.4,388.7,597.4L388.7,597.4z"/>
	</g>
	<g>
		<g>
			<path class="st1" d="M539.5,502.5c-18.8,0-34.9,1.3-48.3,3.8s-23.3,5.2-29.7,8.2l5.1,30.9c4.9-1.8,12.6-4.1,23.2-7.1
				c10.5-2.9,26.5-4.3,48-4.3c15.1,0,27.2,2.3,36.4,6.8c9.3,4.5,16.4,10.4,21.5,17.9c5.1,7.4,8.4,15.8,9.9,24.9
				c1.5,9.3,2.3,18.7,2.3,28.5v17.3c-1.5-0.7-4.2-1.6-8.2-2.5c-3.9-0.9-8.7-1.8-14.1-2.8c-5.4-0.9-11.1-1.7-17-2.2
				c-5.8-0.6-11.4-0.8-16.7-0.8c-17.7,0-34.1,1.7-49.1,4.9c-15.1,3.3-28,8.4-38.9,15.5c-10.9,7.1-19.4,16-25.4,26.8
				c-6,10.8-9.1,23.8-9.1,39c0,15.9,2.8,29.4,8.2,40.4c5.4,11,13,20.1,22.6,27.1c9.6,7.1,20.9,12.2,33.9,15.5
				c13,3.3,27.2,4.9,42.6,4.9c12,0,23.8-0.5,35.3-1.4c11.4-0.9,21.9-2.1,31.3-3.5c9.4-1.5,17.6-2.8,24.8-4
				c7.1-1.3,12.6-2.5,16.4-3.5V606c0-14.8-1.9-28.6-5.6-41.2c-3.7-12.6-9.8-23.6-18-32.8c-8.3-9.3-19.1-16.5-32.4-21.7
				C575,505,558.7,502.5,539.5,502.5L539.5,502.5z M542.9,763.8c-11.6,0-22.1-1-31.3-3c-9.3-2-17.1-5.1-23.8-9.5
				c-6.6-4.3-11.6-10.2-15.3-17.3c-3.5-7.2-5.3-16.1-5.3-26.6c0-11.9,2.7-21.5,7.9-28.8c5.2-7.2,12-12.9,20.3-17s17.3-6.9,27.1-8.2
				c9.8-1.3,19.2-1.9,28.2-1.9c15.8,0,28.2,1,37.3,3c9.1,2,15.6,3.8,19.7,5.7V759c-7.5,1.5-16.7,2.7-27.4,3.5
				C569.7,763.4,557.2,763.8,542.9,763.8L542.9,763.8z"/>
		</g>
	</g>
	<g>
		<g>
			<path class="st1" d="M883.2,502.5H683.5v30.2h155.2c-10,11.8-22.3,26.9-37.1,45.3c-14.8,18.3-30,37.9-45.5,58.8
				c-15.6,20.9-30.6,42.2-44.9,63.8c-14.4,21.6-26.5,41.4-36.2,59.3v25.7h213.4v-30.2H717.1c11.7-20.1,25.3-41.3,40.8-63.8
				c15.5-22.5,31-44,46.8-64.6s30.6-39.4,44.4-56.2c13.9-16.9,25.2-29.9,34.1-39.3V502.5L883.2,502.5z"/>
		</g>
	</g>
	<circle class="st2" cx="387.5" cy="548.7" r="29.4"/>
</g>
<g id="R_1_" transform="matrix(328.821,0,0,309.201,998.681,607.149)">
</g>
<g>
	<g>
		<g>
			<g>
				<path d="M454.4,56.1c-25.6,0-47.4,3.1-65.5,9.4S354.5,79.7,340,89.4c-14-11.1-30.5-19.4-49.6-25c-19.1-5.5-38.5-8.3-58.3-8.3
					c-26.5,0-52,3.6-76.4,10.9c-24.4,7.2-44.8,16.6-61.2,28.2c-9.7,6.8-17.3,14-22.8,21.7c-5.6,7.7-8.3,18.1-8.3,31.1v218.6
					c0,12.1,1.6,21.8,4.7,29.3s7.6,13.4,13.4,17.7c5.8,4.3,12.9,7.2,21.4,8.7c8.4,1.4,18,2.2,28.6,2.2c11.1,0,21.8-0.7,32.2-2.2
					c10.4-1.4,18-2.9,22.8-4.3V163.9c4.3-2.4,9.6-4.9,15.9-7.6c6.3-2.6,13.8-4,22.4-4c12.5,0,23.3,3.3,32.2,9.8s13.4,17,13.4,31.5
					v173c0,12.1,1.6,21.8,4.7,29.3s7.6,13.4,13.4,17.7c5.8,4.3,12.9,7.2,21.4,8.7c8.4,1.4,18,2.2,28.6,2.2s21.1-0.7,31.5-2.2
					c10.4-1.4,18.2-2.9,23.5-4.3V177c0-1.4,0-3,0-4.7s-0.2-3.5-0.7-5.4c3.9-3.4,9.6-6.6,17.4-9.8c7.7-3.1,15-4.7,21.7-4.7
					c14,0,25.1,3.3,33.3,9.8c8.2,6.5,12.3,17,12.3,31.5v173c0,12.1,1.6,21.8,4.7,29.3s7.6,13.4,13.4,17.7c5.8,4.3,12.9,7.2,21.4,8.7
					c8.4,1.4,18,2.2,28.6,2.2c11.1,0,21.8-0.7,32.2-2.2c10.4-1.4,18-2.9,22.8-4.3v-228c0-24.6-4.1-45.5-12.3-62.6
					s-19.2-30.9-32.9-41.3c-13.8-10.4-29.4-18-47.1-22.8C490.7,58.5,472.8,56.1,454.4,56.1L454.4,56.1z"/>
			</g>
		</g>
		<g>
			<g>
				<path d="M759.8,55.5c-1.7,0-3.5,0-5.2,0c-14.7,0.2-31.2,1.3-49.7,3.3s-36,5.8-52.5,11.5c-7.7,2.8-13.7,6.5-18.1,11
					c-4.4,4.5-6.5,10.8-6.4,18.9l3.9,270.3c0.3,20.1,11.1,34,32.4,41.8c7.8,3,16.2,5.3,25.3,6.9s18.2,2.9,27.3,4
					c9.1,1,17.9,1.7,26.4,1.9c6.3,0.2,12.1,0.3,17.3,0.3c1.8,0,3.6,0,5.3,0c28.9-0.4,55.3-4.7,79.1-12.7c23.8-8.1,44.2-20,61.1-35.9
					c16.9-15.9,29.9-35.4,38.8-58.4c8.9-23.1,13.2-50.1,12.7-80.9c-0.5-31.6-5.7-59-15.7-82s-23.9-42-41.6-57
					c-17.8-15-39-26-63.6-33C813.5,58.8,787.9,55.5,759.8,55.5L759.8,55.5z M762.9,343.7c-4.8,0-9.8-0.2-15.1-0.6
					c-6.2-0.5-11.4-1.1-15.7-1.8l-2.9-201.5c5.8-0.9,11.5-1.5,17-2c5.6-0.5,11.1-0.7,16.5-0.8c0.6,0,1.2,0,1.8,0
					c26.2,0,47.3,8.5,63.4,25.4c16.5,17.3,24.9,43.3,25.4,78.1c0.3,18.1-1.7,33.7-6,46.7c-4.3,13-10.3,23.6-18.1,31.8
					c-7.8,8.2-17.2,14.3-28.1,18.3c-10.9,4-23,6.1-36.1,6.3C764.4,343.7,763.6,343.7,762.9,343.7L762.9,343.7z"/>
			</g>
		</g>
	</g>
</g>
</svg>
