<svg id="rocket" xmlns="http://www.w3.org/2000/svg" width="578.97" height="656.625" viewBox="0 0 578.97 656.625">
  <defs>
    <style>
      .cls-1, .cls-5 {
        fill: #c22419;
      }

      .cls-1, .cls-3, .cls-4, .cls-6, .cls-7 {
        fill-rule: evenodd;
      }

      .cls-2, .cls-4 {
        fill: #e0483d;
      }

      .cls-3 {
        fill: #e75b4c;
      }

      .cls-6, .cls-8 {
        fill: #fff;
      }

      .cls-7 {
        fill: #f1f4f9;
      }
    </style>
  </defs>
  <g id="body">
    <path class="cls-1" d="M1288.02,559.488s-8.32,4.089-3.5,68.669c0.35,4.772-5.19,2.845-8.17.965-3.31-2.083-129.76-68.011-89.04-144.4S1288.02,559.488,1288.02,559.488Z" transform="translate(-1035.66 -177.688)"/>
    <circle class="cls-2" cx="118.28" cy="439.062" r="118.28"/>
    <path class="cls-3" d="M1186.21,524.012c-0.59-11.818,6.62-8.849,8.31-8.023,3.94,1.923-1.92,5.206,1.58,9.881C1201.78,533.463,1187.29,545.922,1186.21,524.012Z" transform="translate(-1035.66 -177.688)"/>
    <path id="Shape_1_copy_3" data-name="Shape 1 copy 3" class="cls-1" d="M1400.13,457.479s4.88-7.9,68.77,3.009c4.72,0.806,3.33-4.9,1.74-8.051-1.76-3.494-55.33-135.737-135.35-102.382S1400.13,457.479,1400.13,457.479Z" transform="translate(-1035.66 -177.688)"/>
    <path id="Shape_3_copy" data-name="Shape 3 copy" class="cls-4" d="M1369.76,354.641c16.81,3.178,12.99,9.87,11.9,11.4-2.52,3.558-7.52-3.709-13.99-1.5C1357.17,368.12,1338.6,348.752,1369.76,354.641Z" transform="translate(-1035.66 -177.688)"/>
    <path id="Shape_1_copy" data-name="Shape 1 copy" class="cls-1" d="M1293.58,562.5c-10.51-5.554-260.83-136.777-243.66-378.989,0.34-4.793,3.13-5.277,3.13-5.277l307.74,346.934S1309.67,571,1293.58,562.5Zm110.65-98.049c-4.27-11.1-104.95-275.312-347.69-286.77-4.81-.227-5.62,2.483-5.62,2.483l308.23,346.681S1410.77,481.449,1404.23,464.455Z" transform="translate(-1035.66 -177.688)"/>
    <path id="Shape_1_copy_2" data-name="Shape 1 copy 2" class="cls-4" d="M1288.69,568.745c-9.85-5.2-244.32-128.154-228.27-355.018,0.31-4.489,2.92-4.942,2.92-4.942l288.3,325.005S1303.77,576.71,1288.69,568.745Zm103.62-91.818c-4-10.4-98.34-257.888-325.7-268.66-4.5-.213-5.26,2.325-5.26,2.325L1350.1,535.36S1398.44,492.845,1392.31,476.927Z" transform="translate(-1035.66 -177.688)"/>
    <circle class="cls-5" cx="405.935" cy="441.25" r="163.565"/>
    <path class="cls-3" d="M1275.32,522.772S1076.88,390.7,1062.36,260.521c-0.89-7.943,29.84,114.563,217.45,258.176C1281.98,520.361,1275.32,522.772,1275.32,522.772Z" transform="translate(-1035.66 -177.688)"/>
    <path class="cls-1" d="M1133.73,292.579a85.767,85.767,0,1,1-5.77,121.149A85.764,85.764,0,0,1,1133.73,292.579Z" transform="translate(-1035.66 -177.688)"/>
    <circle id="Ellipse_3_copy" data-name="Ellipse 3 copy" class="cls-2" cx="152.45" cy="181.359" r="85.77"/>
    <path id="Ellipse_3_copy_2" data-name="Ellipse 3 copy 2" class="cls-6" d="M1147.92,314.591a60.1,60.1,0,1,1-4.05,84.892A60.093,60.093,0,0,1,1147.92,314.591Z" transform="translate(-1035.66 -177.688)"/>
    <path id="Rounded_Rectangle_1" data-name="Rounded Rectangle 1" class="cls-7" d="M1137.88,339.646l6.61-10.528a6.376,6.376,0,0,1,10.8,6.782l-6.62,10.53A6.373,6.373,0,1,1,1137.88,339.646Z" transform="translate(-1035.66 -177.688)"/>
  </g>
  <g id="air">
    <path class="cls-6" d="M1338.7,641.953a87.951,87.951,0,1,1-5.92,124.238A87.951,87.951,0,0,1,1338.7,641.953Z" transform="translate(-1035.66 -177.688)"/>
    <circle id="Ellipse_4_copy_2" data-name="Ellipse 4 copy 2" class="cls-8" cx="481.81" cy="505.531" r="87.94"/>
    <path id="Ellipse_4_copy_3" data-name="Ellipse 4 copy 3" class="cls-6" d="M1363.96,589.791a54.779,54.779,0,1,1-3.69,77.382A54.777,54.777,0,0,1,1363.96,589.791Z" transform="translate(-1035.66 -177.688)"/>
    <path id="Ellipse_4_copy" data-name="Ellipse 4 copy" class="cls-6" d="M1448.36,532.087a70.107,70.107,0,1,1-4.72,99.037A70.114,70.114,0,0,1,1448.36,532.087Z" transform="translate(-1035.66 -177.688)"/>
    <circle class="cls-8" cx="391.37" cy="320.469" r="14.81"/>
    <circle id="Ellipse_5_copy" data-name="Ellipse 5 copy" class="cls-8" cx="400.17" cy="635.75" r="20.86"/>
    <circle id="Ellipse_5_copy_2" data-name="Ellipse 5 copy 2" class="cls-8" cx="567.405" cy="418.875" r="11.565"/>
    <path id="Shape_4_copy" data-name="Shape 4 copy" class="cls-6" d="M1334.18,526.756l56.66,132.938,59.98-29.333L1347.83,513.954Zm27.96-24.985,126.74,73.044-38.06,55.546L1347.83,513.954Z" transform="translate(-1035.66 -177.688)"/>
  </g>
</svg>
