<?xml version="1.0"?>
<svg xmlns="http://www.w3.org/2000/svg" xmlns:xlink="http://www.w3.org/1999/xlink" version="1.1" id="Capa_1" x="0px" y="0px" viewBox="0 0 512 512" style="enable-background:new 0 0 512 512;" xml:space="preserve" width="512px" height="512px" class=""><g><rect x="241" y="62" style="fill:#5A5A5A;" width="30" height="90" data-original="#5A5A5A" class=""/><rect x="256" y="62" style="fill:#444444;" width="15" height="90" data-original="#444444" class=""/><g>
	<path style="fill:#5A5A5A;" d="M271,317v120c0,8.399-6.599,15-15,15s-15-6.601-15-15V317c0-8.401,6.599-15,15-15   S271,308.599,271,317z" data-original="#5A5A5A" class=""/>
	<path style="fill:#5A5A5A;" d="M451,377v60c0,8.399-6.599,15-15,15s-15-6.601-15-15v-45H91v45c0,8.399-6.599,15-15,15   s-15-6.601-15-15v-60c0-8.401,6.599-15,15-15h360C444.401,362,451,368.599,451,377z" data-original="#5A5A5A" class=""/>
</g><g>
	<path style="fill:#444444;" d="M271,317v120c0,8.399-6.599,15-15,15V302C264.401,302,271,308.599,271,317z" data-original="#444444" class=""/>
	<path style="fill:#444444;" d="M451,377v60c0,8.399-6.599,15-15,15s-15-6.601-15-15v-45H256v-30h180   C444.401,362,451,368.599,451,377z" data-original="#444444" class=""/>
</g><path style="fill:#FFD400;" d="M346,0H166c-8.401,0-15,6.599-15,15v62c0,8.399,6.599,15,15,15h180c8.401,0,15-6.601,15-15V15  C361,6.599,354.401,0,346,0z" data-original="#FFD400"/><g>
	<path style="fill:#687F82" d="M256,422c-24.901,0-45,20.099-45,45c0,24.899,20.099,45,45,45s45-20.101,45-45   C301,442.099,280.901,422,256,422z" data-original="#76E2F8" class="active-path" data-old_color="#687f82"/>
	<path style="fill:#687F82" d="M136,512H15c-8.291,0-15-6.709-15-15v-60c0-8.291,6.709-15,15-15h121c8.291,0,15,6.709,15,15v60   C151,505.291,144.291,512,136,512z" data-original="#76E2F8" class="active-path" data-old_color="#687f82"/>
</g><path style="fill:#9BAAAB" d="M497,512H376c-8.291,0-15-6.709-15-15v-60c0-8.291,6.709-15,15-15h121c8.291,0,15,6.709,15,15v60  C512,505.291,505.291,512,497,512z" data-original="#25D9F8" class="" data-old_color="#9baaab"/><path style="fill:#E57164" d="M356.499,216.499l-90-90C263.8,123.5,259.9,122,256,122s-7.8,1.5-10.499,4.499l-90,90  c-6,5.7-6,15.3,0,21l90,90C248.2,330.5,252.1,332,256,332s7.8-1.5,10.499-4.501l90-90C362.5,231.799,362.5,222.199,356.499,216.499z  " data-original="#FF7816" class="" data-old_color="#e57164"/><path style="fill:#9BAAAB" d="M301,467c0,24.899-20.099,45-45,45v-90C280.901,422,301,442.099,301,467z" data-original="#25D9F8" class="" data-old_color="#9baaab"/><path style="fill:#E75B4C" d="M266.499,327.499C263.8,330.5,259.9,332,256,332V122c3.9,0,7.8,1.5,10.499,4.499l90,90  c6,5.7,6,15.3,0,21L266.499,327.499z" data-original="#FF4B00" class="" data-old_color="#e75b4c"/><path style="fill:#FDBF00" d="M346,92h-90V0h90c8.401,0,15,6.599,15,15v62C361,85.399,354.401,92,346,92z" data-original="#FDBF00" class=""/></g> </svg>
